<svg xmlns="http://www.w3.org/2000/svg" viewBox="0 0 512 512">
  <defs>
    <linearGradient id="brand" x1="24" y1="16" x2="488" y2="496" gradientUnits="userSpaceOnUse">
      <stop stop-color="#818cf8"/>
      <stop offset="1" stop-color="#3730a3"/>
    </linearGradient>
  </defs>
  <rect width="512" height="512" fill="url(#brand)"/>
  <path d="M256 128c12 65 27 80 92 92-65 12-80 27-92 92-12-65-27-80-92-92 65-12 80-27 92-92Z" fill="white"/>
  <path d="M352 284c6 33 14 41 47 47-33 6-41 14-47 47-6-33-14-41-47-47 33-6 41-14 47-47Z" fill="white" opacity=".88"/>
  <path d="M158 296c4 24 10 30 34 34-24 4-30 10-34 34-4-24-10-30-34-34 24-4 30-10 34-34Z" fill="white" opacity=".76"/>
</svg>
